<?xml version="1.0" standalone="no"?>
<!DOCTYPE svg PUBLIC "-//W3C//DTD SVG 20010904//EN"
 "http://www.w3.org/TR/2001/REC-SVG-20010904/DTD/svg10.dtd">
<svg version="1.0" xmlns="http://www.w3.org/2000/svg"
 width="1000.000000pt" height="1000.000000pt" viewBox="0 0 1000.000000 1000.000000"
 preserveAspectRatio="xMidYMid meet">
<metadata>
Created by potrace 1.14, written by Peter Selinger 2001-2017
</metadata>
<g transform="translate(0.000000,1000.000000) scale(0.100000,-0.100000)"
fill="#000000" stroke="none">
<path d="M0 5000 l0 -5000 5000 0 5000 0 0 5000 0 5000 -5000 0 -5000 0 0
-5000z m1775 2701 c425 -16 418 -15 470 -66 23 -23 58 -69 76 -101 36 -63 46
-88 104 -284 21 -69 53 -172 71 -230 59 -188 175 -563 204 -660 16 -52 49
-162 74 -245 25 -82 66 -217 91 -300 26 -82 55 -181 66 -220 11 -38 35 -119
54 -180 39 -121 100 -324 120 -395 7 -25 30 -99 50 -165 21 -66 41 -133 45
-150 14 -52 81 -268 102 -325 11 -30 28 -80 39 -110 11 -30 26 -64 34 -74 15
-19 15 -19 29 -1 7 10 19 34 26 54 7 20 27 68 45 106 18 39 45 99 60 135 57
136 72 154 109 127 15 -11 16 -18 7 -48 -8 -28 -62 -180 -84 -239 -3 -8 -26
-76 -52 -150 -25 -74 -56 -164 -70 -200 -13 -36 -35 -99 -49 -140 -14 -41 -42
-120 -61 -175 -20 -55 -47 -131 -60 -170 -53 -157 -86 -251 -95 -270 -5 -11
-25 -69 -45 -130 -20 -60 -40 -119 -45 -130 -9 -21 -36 -96 -120 -340 -28 -82
-56 -160 -61 -172 -5 -13 -13 -33 -18 -45 -6 -13 -12 -32 -13 -43 -3 -16 -7
-13 -19 15 -46 104 -144 406 -233 715 -19 66 -39 134 -45 150 -5 17 -21 71
-36 120 -28 95 -41 140 -106 355 -22 74 -44 151 -49 170 -4 19 -19 70 -33 112
-14 42 -28 92 -32 110 -4 18 -11 38 -15 43 -4 6 -10 24 -13 40 -3 17 -21 84
-42 150 -20 66 -40 134 -45 150 -4 17 -25 84 -45 150 -20 66 -40 136 -45 155
-19 76 -71 246 -80 262 -6 10 -10 27 -10 37 0 11 -4 30 -9 43 -5 13 -17 50
-26 83 -9 33 -25 87 -36 120 -10 33 -32 110 -49 170 -17 61 -38 130 -46 155
-16 52 -81 276 -97 335 -6 22 -30 108 -54 190 -24 83 -55 191 -69 240 -14 50
-34 119 -45 155 -11 36 -38 130 -60 210 -22 80 -49 177 -59 215 -11 39 -27 96
-36 128 -72 268 -156 388 -323 455 -50 20 -71 22 -272 22 l-219 0 0 43 0 42
423 3 c232 2 557 -1 722 -7z m3815 -19 c173 -8 181 -12 258 -132 48 -74 73
-143 172 -470 35 -116 50 -165 79 -255 53 -170 157 -511 164 -540 5 -21 77
-257 101 -335 8 -25 28 -90 45 -145 16 -55 50 -165 74 -245 25 -80 47 -154 50
-165 13 -52 69 -232 77 -250 4 -11 11 -31 13 -45 7 -32 62 -218 75 -250 6 -14
20 -61 32 -105 34 -122 123 -402 148 -465 32 -81 46 -110 51 -110 7 0 75 143
125 260 30 71 64 146 76 170 8 15 64 19 78 6 3 -4 0 -21 -7 -39 -7 -18 -20
-52 -28 -77 -9 -25 -22 -58 -28 -75 -7 -16 -18 -48 -25 -70 -6 -22 -16 -50
-21 -62 -18 -45 -22 -56 -94 -263 -45 -130 -114 -324 -166 -470 -17 -47 -34
-99 -38 -115 -5 -17 -13 -39 -18 -50 -6 -11 -27 -69 -47 -130 -20 -60 -41
-119 -46 -130 -5 -11 -18 -49 -30 -85 -11 -36 -24 -74 -29 -85 -10 -25 -23
-61 -68 -195 -19 -58 -39 -114 -44 -125 -14 -31 -69 -196 -79 -234 -8 -32 -26
-60 -33 -50 -2 4 -23 58 -46 124 -34 96 -102 301 -120 365 -12 41 -33 113 -47
160 -14 47 -29 99 -34 115 -18 65 -53 182 -65 220 -7 22 -23 74 -35 115 -12
41 -32 109 -44 150 -13 41 -31 102 -40 135 -10 33 -31 105 -47 160 -17 55 -39
129 -49 165 -42 141 -49 166 -59 195 -5 17 -17 57 -26 90 -9 33 -29 101 -44
150 -16 50 -38 126 -50 170 -13 44 -26 91 -31 105 -4 14 -15 50 -24 80 -9 30
-33 109 -52 175 -20 66 -42 143 -49 170 -8 28 -22 79 -33 115 -11 36 -30 99
-42 140 -12 41 -27 95 -35 120 -7 25 -21 72 -30 105 -9 33 -23 75 -31 93 -8
18 -14 40 -14 50 0 9 -7 36 -15 58 -8 23 -24 77 -36 120 -12 44 -27 99 -34
124 -30 100 -86 299 -106 370 -11 41 -33 118 -48 170 -16 52 -43 149 -61 215
-18 66 -38 136 -45 155 -7 19 -18 60 -25 90 -24 104 -63 206 -115 301 -13 24
-73 83 -136 134 -51 42 -141 58 -358 64 -195 6 -204 7 -211 27 -16 41 -3 43
215 47 266 5 1014 -2 1205 -11z m3838 -59 l-3 -38 -210 -5 -210 -5 -6 -1815
c-3 -998 -9 -1826 -12 -1840 -3 -14 -11 -74 -17 -135 -32 -301 -147 -619 -305
-840 -73 -102 -245 -281 -328 -340 -50 -36 -73 -62 -64 -71 1 -2 248 -4 547
-6 l545 -3 3 -35 3 -35 -897 -3 c-783 -2 -895 0 -885 12 7 8 25 18 41 21 65
14 212 138 255 216 45 80 74 152 86 211 7 37 11 777 11 2393 1 1287 3 2343 5
2348 2 4 328 7 724 7 l720 0 -3 -37z m-8417 -2853 c4 -14 19 -63 33 -110 15
-47 33 -105 41 -130 7 -25 37 -119 65 -210 28 -91 64 -212 81 -270 16 -58 38
-134 49 -170 18 -59 68 -242 121 -440 58 -216 167 -556 201 -623 28 -56 78
-129 168 -246 52 -68 76 -107 69 -112 -16 -10 -1249 -7 -1255 2 -2 5 8 16 23
26 54 35 143 121 167 161 86 147 113 240 126 437 5 77 8 487 6 910 -1 444 1
778 6 788 7 14 19 17 50 15 35 -2 43 -7 49 -28z m3610 -30 c9 -30 38 -120 63
-200 25 -80 59 -192 76 -250 18 -58 38 -123 45 -145 14 -41 79 -273 140 -500
19 -71 39 -143 45 -160 5 -16 18 -64 30 -105 47 -169 129 -433 159 -509 28
-75 76 -152 160 -259 39 -51 71 -94 71 -98 0 -3 10 -14 23 -24 12 -10 19 -21
16 -25 -4 -3 -288 -7 -633 -9 -519 -4 -626 -2 -626 9 0 8 8 16 19 20 25 8 133
116 169 169 35 51 73 137 96 217 30 102 36 289 36 1105 0 446 3 814 7 818 4 4
25 6 47 4 38 -3 40 -4 57 -58z"/>
</g>
</svg>
